inDegrees=no
num_controls=7
num_derivatives=13
num_iterations=198
num_multipliers=7
num_parameters=0
num_slacks=7
num_states=26
objective=0.494202
objective_accelerations=0.010983
objective_balance=0.003890
objective_effort=0.016889
objective_height=0.361242
objective_ligament=0.101198
solver_duration=2824.353598
status=Solve_Succeeded
success=true
DataType=double
version=3
OpenSimVersion=4.5
endheader
time	/jointset/ground_pelvis/pelvis_tilt/value	/jointset/ground_pelvis/pelvis_tx/value	/jointset/ground_pelvis/pelvis_ty/value	/jointset/hip_l/hip_flexion_l/value	/jointset/hip_l/hip_adduction_l/value	/jointset/hip_l/hip_rotation_l/value	/jointset/back/lumbar_extension/value	/jointset/patellofemoral_l/patellar_flexion_l/value	/jointset/knee_l/knee_flexion_l/value	/jointset/knee_l/knee_adduction_l/value	/jointset/knee_l/knee_rotation_l/value	/jointset/ankle_l/ankle_angle_l/value	/jointset/subtalar_l/subtalar_angle_l/value	/jointset/ground_pelvis/pelvis_tilt/speed	/jointset/ground_pelvis/pelvis_tx/speed	/jointset/ground_pelvis/pelvis_ty/speed	/jointset/hip_l/hip_flexion_l/speed	/jointset/hip_l/hip_adduction_l/speed	/jointset/hip_l/hip_rotation_l/speed	/jointset/back/lumbar_extension/speed	/jointset/patellofemoral_l/patellar_flexion_l/speed	/jointset/knee_l/knee_flexion_l/speed	/jointset/knee_l/knee_adduction_l/speed	/jointset/knee_l/knee_rotation_l/speed	/jointset/ankle_l/ankle_angle_l/speed	/jointset/subtalar_l/subtalar_angle_l/speed	/forceset/tau_hip_flexion_l	/forceset/tau_hip_adduction_l	/forceset/tau_hip_rotation_l	/forceset/tau_knee_flexion_l	/forceset/tau_ankle_angle_l	/forceset/tau_subtalar_angle_l	/forceset/tau_lumbar_extension	lambda_cid13_p0	lambda_cid13_p1	lambda_cid13_p2	lambda_cid13_p3	lambda_cid13_p4	lambda_cid13_p5	lambda_cid14_p0	/jointset/ground_pelvis/pelvis_tilt/accel	/jointset/ground_pelvis/pelvis_tx/accel	/jointset/ground_pelvis/pelvis_ty/accel	/jointset/hip_l/hip_flexion_l/accel	/jointset/hip_l/hip_adduction_l/accel	/jointset/hip_l/hip_rotation_l/accel	/jointset/back/lumbar_extension/accel	/jointset/patellofemoral_l/patellar_flexion_l/accel	/jointset/knee_l/knee_flexion_l/accel	/jointset/knee_l/knee_adduction_l/accel	/jointset/knee_l/knee_rotation_l/accel	/jointset/ankle_l/ankle_angle_l/accel	/jointset/subtalar_l/subtalar_angle_l/accel	gamma_cid13_p0	gamma_cid13_p1	gamma_cid13_p2	gamma_cid13_p3	gamma_cid13_p4	gamma_cid13_p5	gamma_cid14_p0
1.5	0.07580174750193454	0.0005381937158007438	0.9220420298596196	0.3038074769911462	-0.2384251830594822	-0.3127832581343635	-0.7674606017035646	0.3040959353073208	0.3040959353073566	-0.03583734515860855	-0.1745132241497211	-0.01703833718189091	0.05402862900881534	0.2492270297504131	0.2070463750947546	0.1148379181115615	-0.9420633515651047	0.1175705674922	-0.2298578187692678	0.8465744052714449	-0.6969032611144373	-0.6969032611144224	0.02003637818215389	-0.0001093646693586581	0.009635560463336253	0.1289904196620838	-0.1482174207442895	0.01242918316338711	-0.007499173899955703	-0.09959779324643844	0.08609089826765591	0.03881188886067935	0.2508795899023805	-16.36340022980009	-16.2190043750654	4.676487456142936	0.01393958978424672	-693.9036031865903	-86.5021957576067	-23.42856460841308	-0.2776865855424616	0.3335198646761652	-0.1274129020932104	-0.2272737458355917	-0.02974934604677077	-0.03791720830140512	1.458158806081366	-0.3225756562956734	-0.3225756562957433	-0.3512320079030957	0.0002590932844460134	0.1406917001511324	0.02952215794351614	2.147474209374882e-08	5.266067619313303e-09	-6.829527474974407e-08	-7.335997999328308e-09	3.494082958132987e-08	-4.72149932512322e-10	1.31218212961773e-08
1.51	0.07828003272526804	0.002625119287056798	0.9231838600798702	0.294376208659428	-0.2372513671866763	-0.3150833708234952	-0.7589233103683565	0.2971115427038236	0.2971115427038479	-0.03565519307204891	-0.1745142615642541	-0.01693501315202159	0.05531956628260176	0.2464101426884905	0.2103162113329993	0.1135084613558626	-0.9440851932339209	0.1171671703904553	-0.2301353807105639	0.8607610410525168	-0.6998732113889243	-0.6998732113889081	0.01637170196748529	-9.697860935151535e-05	0.01103722562278099	0.1291737746341472	-0.1418751769740835	0.0109493163490343	-0.0074360163635189	-0.1009620855870346	0.08775989843506675	0.03735448584143701	0.24503238073207	-15.79706277698887	-15.69531066251398	4.604527035204113	-0.02153787193447563	-692.1863361695677	-86.28900078449091	-23.36452417797415	-0.286668641325369	0.3203346427684797	-0.1386523325182755	-0.1738683228099593	-0.04945002159200418	-0.01826217623422547	1.380492856494085	-0.2689001236514125	-0.2689001236511581	-0.3774366033848738	0.001886309149722684	0.1411030506808632	0.00925813351724351	2.096203565256075e-08	1.196141305685124e-08	-6.667142915175194e-08	-8.061574675271113e-09	4.295663371617109e-08	1.313388852789571e-11	1.317353615140254e-08
1.52	0.08072955330301981	0.004744067048569353	0.9243118076785217	0.2849278761219419	-0.2360823483107582	-0.3173853764298773	-0.750247837296863	0.2901005115154578	0.2901005115154681	-0.03551035798266438	-0.1745151435288292	-0.01681743264518957	0.05661164029944473	0.2434741006342404	0.2134508131460545	0.1120613937917537	-0.945476192718948	0.1166111681145609	-0.2302364022194803	0.8742107525285455	-0.7022309780884591	-0.702230978088441	0.0125729787473719	-7.827467770949618e-05	0.01248685585581422	0.1292177682733901	-0.1355329332038652	0.009469449534686696	-0.007372858827092983	-0.1023263779276272	0.08942889860247938	0.03589708282220092	0.2391851715617665	-15.23283126079381	-15.17084994428491	4.531989505256647	-0.07284041911185583	-690.4990671756893	-86.08317875144229	-23.29476847642322	-0.3015175840079593	0.3064729796382536	-0.1509350637752206	-0.101105309077766	-0.06027038087670143	-0.002609121825465743	1.310773945072703	-0.200138941305199	-0.2001389413051836	-0.3780414089920482	0.001522667611419675	0.1502847148688192	0.001649891379393175	2.024283933536971e-08	1.9195895562455e-08	-6.454788165316515e-08	-8.657951754204662e-09	5.098760866141521e-08	5.757887657383639e-10	1.318100526431448e-08
1.53	0.08314916033408314	0.006893634318254237	0.9254247130037742	0.2754687564103511	-0.2349196481057691	-0.3196875643022232	-0.7414417337678821	0.2830689049751142	0.2830689049751104	-0.03540416797038404	-0.1745158377820762	-0.01668519372182994	0.05790343203065475	0.2404283517817799	0.2164346822304302	0.1105007629415661	-0.946236132806471	0.1159027861447146	-0.2301700421873327	0.8868719494400635	-0.7039848798645852	-0.7039848798645714	0.00864405248838784	-5.816841669498019e-05	0.0139644112441082	0.1291148258772096	-0.1290267016420376	0.007924305062455393	-0.007305886065822714	-0.1038429546157303	0.09116643149188383	0.03437413663880978	0.2331649742985921	-14.65478782274403	-14.61920630162347	4.453820712649718	-0.06705007747182878	-688.8247651554473	-85.85599938446244	-23.21928695321001	-0.3089458052951613	0.2901482161614503	-0.1614506746681499	-0.04669392774092004	-0.08003827638540295	0.01594116430805838	1.223091990077912	-0.1472009024729321	-0.1472009024735519	-0.4034611382356649	0.002602985533217978	0.1470154552746765	-0.02012716886143448	1.930424752492551e-08	2.700321120287872e-08	-6.189340088519656e-08	-9.117054261315877e-09	5.903470259271243e-08	1.220650390129722e-09	1.314146327601854e-08
1.54	0.08553774142273494	0.009072201147447809	0.9265214473047191	0.2660053861840562	-0.2337648149547474	-0.3219881520545326	-0.7325131583846088	0.2760229223956695	0.2760229223956489	-0.03533789580147153	-0.174516261296676	-0.0165380743436942	0.05919342216515407	0.2372689121521178	0.219250725047792	0.1088271889302649	-0.9463262956600458	0.1150377573209942	-0.2299163782122578	0.8987051233870421	-0.7051061859089758	-0.7051061859089662	0.004589410074040924	-2.412694821057518e-05	0.01546294681100144	0.1288574489312422	-0.1225204700801971	0.006379160590228467	-0.007238913304565123	-0.1053595313038293	0.09290396438129006	0.03285119045542405	0.2271447770354254	-14.07829433745764	-14.06671214062209	4.374854910458592	-0.07815436372055551	-687.1713488356687	-85.63384820249638	-23.13808544060116	-0.3242557394482629	0.2729077262354676	-0.1735236959979517	0.03285013771188029	-0.0915997516514996	0.03485166675996933	1.145169352164829	-0.0736197949580689	-0.07361979495807335	-0.4031846400646146	0.004309709105393546	0.1544807505886616	-0.02923701857799337	1.819037703769423e-08	3.510291068963395e-08	-5.89510884879958e-08	-9.41997138683166e-09	6.68098361975434e-08	1.981521655966337e-09	1.30662179779132e-08
1.55	0.08789420348599743	0.01127805353113022	0.9276009025090247	0.2565444131778012	-0.2326193990525011	-0.3242853620126395	-0.7234705117573715	0.2689688268762254	0.2689688268762302	-0.03531275604937396	-0.1745163394602237	-0.01637592022409315	0.06048006180826088	0.2340055562349939	0.221887879066194	0.1070462567655956	-0.9457525242557338	0.1140194028465528	-0.2294961708924914	0.9096772060879803	-0.7056049143248799	-0.7056049143248705	0.0004208247576701692	9.218289500743005e-06	0.01696880870544123	0.1284437363641668	-0.1159166512987374	0.00478285108965848	-0.007170447772128896	-0.1070148483857485	0.09472065728579365	0.03127465264117934	0.2210336747458954	-13.48768061720399	-13.49196160860058	4.290680065249725	-0.05095396478551382	-685.6003961467926	-85.39888745834629	-23.05118864813781	-0.3300676127849014	0.254336423988981	-0.1830015680817196	0.08700871213814816	-0.1108632234075332	0.05003481774371727	1.051178333210765	-0.02180139370055604	-0.02180139370054955	-0.426346390304375	0.002943214502400969	0.1487807612276284	-0.05145134363499971	1.687455503155609e-08	4.353948721672768e-08	-5.567714399624495e-08	-9.542935790074459e-09	7.427162420883717e-08	2.876056204337698e-09	1.294983625763616e-08
1.56	0.09021749357109971	0.01350932089186603	0.9286620236734077	0.2470926514996603	-0.2314849486806122	-0.3265774839869166	-0.7143225541822945	0.2619129836668652	0.2619129836668928	-0.03532983233301738	-0.1745160649147147	-0.01619867911507638	0.06176176173212442	0.2306345165202527	0.2243337204584698	0.105160380945706	-0.9444840300375281	0.112844651249427	-0.2288987814463751	0.9197673129550138	-0.7054557238925423	-0.705455723892533	-0.003853797073943146	4.641486314796726e-05	0.01848034469412036	0.1278695050825841	-0.1093128325172642	0.003186541589092266	-0.007101982239704272	-0.1086701654676629	0.0965373501902991	0.02969811482693943	0.2149225724563734	-12.89810777504389	-12.91625086549622	4.205463606366423	-0.04133309200001143	-684.0419470093482	-85.16646231134099	-22.95864211139036	-0.3457924989716948	0.2346452010102305	-0.1945124270419968	0.1717947004906018	-0.1228791761883815	0.07028809202995129	0.9687741853838495	0.05596397469032773	0.05596397469032615	-0.4243919431131237	0.005079976292568366	0.1556155694365207	-0.06134076147943391	1.548447178794894e-08	5.245280094531889e-08	-5.222399018556441e-08	-9.590693763350722e-09	8.183202514435375e-08	3.933020173874782e-09	1.284206069038056e-08
1.57	0.09250657611603443	0.01576405701216587	0.929703784680631	0.237656991779763	-0.2303630138756804	-0.3288628627277516	-0.7050782232499324	0.2548617990892043	0.2548617990892171	-0.0353901506285068	-0.1745154871609199	-0.01600635219375746	0.06303690868915147	0.2271647114012217	0.2265779756926172	0.1031757426247159	-0.9425284276265341	0.1115157368522825	-0.2281505590490778	0.9289431646970568	-0.7046712346060663	-0.7046712346060136	-0.008225730742340717	6.640413426409149e-05	0.01998325361734042	0.1271314252825993	-0.1026119026146808	0.001532049329052212	-0.007033897429919595	-0.1104983130987795	0.09847929405964138	0.02806522351936844	0.208732351335633	-12.28168692755831	-12.31827069999082	4.11384568494038	-0.003229665074753758	-682.5957568405563	-84.92509711651249	-22.86051332077693	-0.3501684965235154	0.2139845946979888	-0.2028324278430493	0.2253656747046524	-0.1418944465787931	0.08106360180014531	0.8686343455773714	0.1061824228273793	0.1061824228339095	-0.4459639131226639	3.681301106338904e-05	0.147362763239651	-0.08431606471819479	1.40015619975055e-08	6.196203617578198e-08	-4.854682472622175e-08	-9.544443699168818e-09	8.951569223514884e-08	5.193020919869016e-09	1.274504281440176e-08
